<svg xmlns="http://www.w3.org/2000/svg" viewBox="0 0 8610 9286.36" aria-hidden="true">
  <circle fill="#2356A7" cx="5682.78" cy="3950.83" r="678.7"/>
  <path fill="#FFFFFF" d="M3672.45,2874c-110.3-155-469.34-551.65-250.74-740.48,113-97.61,305.23,8.6,420.87,61,211.33,106.93,405,244.19,591.82,386.57,927.71,727.44,2254.73,2099.29,2676.67,3201.46,37.28,113,63,308.82-93.12,358.23-287.64,60.63-758.22-415.2-956.75-603.61,128.05,86.19,256,171.66,387,250,130.46,77,444.11,266.23,513.66,198,115.79-113.55-500.62-906.35-778.39-1255.41-384-471.53-795.32-923.37-1223.67-1355.23-320.51-323-650.81-638.44-1011.32-914.71-142.28-99.08-386.95-288.34-466.5-227.32-118.24,90.69,143.65,543.82,190.48,641.46Z"/>
  <path fill="#FFFFFF" d="M60.35,9275.08c198.11,107.78,1169.1-864.41,1361.93-1036.78,841.06-806.07,1648.93-1646.93,2446.94-2495.6,1195.35-1274.1,2370-2569.93,3488.15-3912.29q278.86-335.69,545.79-680.1c233.57-315.41,728.11-987.49,656.58-1041.26-59.57-44.77-220.38,78-320.56,133.68C7993.43,397,7760.3,574.56,7530.11,752.16c146-127,1116.31-1100.77,1140.09-619.56-14.12,138.15-85,260.44-145.63,380.18-291.91,517-643.92,985.72-999,1451.73C7170.17,2430.3,6795.6,2880.1,6419.08,3327.85,4893.82,5100.56,3283.79,6808.51,1512.33,8338.36c-237.49,190-1227.48,1056.3-1452,936.72Z"/>
</svg>
